<svg width="10" height="10" viewBox="0 0 10 10" fill="none" xmlns="http://www.w3.org/2000/svg">
<g clip-path="url(#clip0_537_4053)">
<path d="M4.79168 1.25C5.34162 1.24857 5.88413 1.37705 6.37501 1.625C6.96324 1.91899 7.458 2.37094 7.80388 2.93023C8.14976 3.48952 8.33309 4.13407 8.33334 4.79167C8.33478 5.34161 8.20629 5.88412 7.95835 6.375L8.75001 8.75L6.37501 7.95833C5.88413 8.20628 5.34162 8.33477 4.79168 8.33333C4.13408 8.33308 3.48953 8.14975 2.93024 7.80387C2.37095 7.45799 1.919 6.96323 1.62501 6.375C1.37707 5.88412 1.24858 5.34161 1.25001 4.79167L1.25001 4.58333C1.29792 3.71486 1.6645 2.89457 2.27954 2.27953C2.89458 1.66448 3.71487 1.29791 4.58334 1.25L4.79168 1.25Z" stroke="#F2F7FB" stroke-width="1.5" stroke-linecap="round" stroke-linejoin="round"/>
</g>
<defs>
<clipPath id="clip0_537_4053">
<rect width="10" height="10" fill="white" transform="translate(0 10) rotate(-90)"/>
</clipPath>
</defs>
</svg>
