<svg width="15" height="15" viewBox="0 0 15 15" fill="none" xmlns="http://www.w3.org/2000/svg">
<g clip-path="url(#clip0_1075_6364)">
<path d="M10 2.50031H11.25C11.5815 2.50031 11.8995 2.632 12.1339 2.86642C12.3683 3.10084 12.5 3.41878 12.5 3.75031V12.5003C12.5 12.8318 12.3683 13.1498 12.1339 13.3842C11.8995 13.6186 11.5815 13.7503 11.25 13.7503H3.75C3.41848 13.7503 3.10054 13.6186 2.86612 13.3842C2.6317 13.1498 2.5 12.8318 2.5 12.5003V3.75031C2.5 3.41878 2.6317 3.10084 2.86612 2.86642C3.10054 2.632 3.41848 2.50031 3.75 2.50031H5" stroke="#7A8D9C" stroke-linecap="round" stroke-linejoin="round"/>
<path d="M9.375 1.25031H5.625C5.27982 1.25031 5 1.53013 5 1.87531V3.12531C5 3.47048 5.27982 3.75031 5.625 3.75031H9.375C9.72018 3.75031 10 3.47048 10 3.12531V1.87531C10 1.53013 9.72018 1.25031 9.375 1.25031Z" stroke="#7A8D9C" stroke-linecap="round" stroke-linejoin="round"/>
</g>
<defs>
<clipPath id="clip0_1075_6364">
<rect width="15" height="15" fill="white" transform="translate(0 0.000305176)"/>
</clipPath>
</defs>
</svg>
