<svg width="149" height="30" viewBox="0 0 149 30" fill="none" xmlns="http://www.w3.org/2000/svg">
<path fill-rule="evenodd" clip-rule="evenodd" d="M22.0644 29.5503C10.5902 31.1067 0.585462 26.2261 0.0244095 18.3546C-0.344538 13.1825 3.50073 8.17087 9.40388 4.92877C9.77915 4.72245 10.0818 5.18245 9.74494 5.44561C5.66967 8.62719 3.36546 12.4809 3.63651 16.2856C4.18283 23.9477 15.1202 28.9967 28.5507 27.3219C28.9718 27.2693 29.0939 27.7767 28.6955 27.9219C26.6302 28.6751 24.4013 29.2335 22.0644 29.5503Z" fill="#FAFAFA"/>
<path fill-rule="evenodd" clip-rule="evenodd" d="M9.84587 0.0363094C18.5396 0.522625 25.5917 5.88157 25.4696 12.1084C25.3901 16.2189 22.1969 19.6074 17.5601 21.2932C17.3411 21.3732 17.2153 21.1053 17.4164 20.9879C20.6843 19.0747 22.6938 16.3537 22.7543 13.2584C22.8764 6.99841 14.9448 1.35263 4.80429 0.668941C4.57429 0.653678 4.55903 0.374204 4.78587 0.333152C6.37903 0.0463094 8.08061 -0.0621116 9.84587 0.0363094Z" fill="#FAFAFA"/>
<path fill-rule="evenodd" clip-rule="evenodd" d="M13.3553 11.662C14.4906 11.662 15.4106 12.582 15.4106 13.7173C15.4106 14.852 14.4906 15.7725 13.3553 15.7725C12.2206 15.7725 11.3 14.852 11.3 13.7173C11.3 12.582 12.2206 11.662 13.3553 11.662Z" fill="#FAFAFA"/>
<path fill-rule="evenodd" clip-rule="evenodd" d="M39.5654 9.17566H47.8728V11.6099H42.3986V13.1741H47.3565V15.432H42.3986V17.0699H47.9465V19.5046H39.5654V9.17566Z" fill="#FAFAFA"/>
<path fill-rule="evenodd" clip-rule="evenodd" d="M58.5737 14.3694V14.3399C58.5737 11.3299 60.89 8.96887 64.0185 8.96887C66.1285 8.96887 67.4864 9.85466 68.4011 11.1231L66.2469 12.7905C65.6564 12.0531 64.9774 11.581 63.989 11.581C62.5432 11.581 61.5248 12.8052 61.5248 14.3105V14.3399C61.5248 15.8894 62.5432 17.0994 63.989 17.0994C65.0658 17.0994 65.7006 16.5973 66.3206 15.8447L68.4748 17.3794C67.5006 18.7226 66.1874 19.7105 63.9006 19.7105C60.9495 19.7105 58.5737 17.4531 58.5737 14.3694Z" fill="#FAFAFA"/>
<path fill-rule="evenodd" clip-rule="evenodd" d="M79.2939 9.17566H87.6008V11.6099H82.1271V13.1741H87.085V15.432H82.1271V17.0699H87.675V19.5046H79.2939V9.17566Z" fill="#FAFAFA"/>
<path fill-rule="evenodd" clip-rule="evenodd" d="M98.73 9.17566H101.401L105.65 14.6351V9.17566H108.483V19.5046H105.975L101.563 13.8383V19.5046H98.73V9.17566Z" fill="#FAFAFA"/>
<path fill-rule="evenodd" clip-rule="evenodd" d="M122.43 11.6841H119.332V9.17572H128.391V11.6841H125.292V19.5041H122.43V11.6841Z" fill="#FAFAFA"/>
<path fill-rule="evenodd" clip-rule="evenodd" d="M143.991 15.4321L142.84 12.4952L141.674 15.4321H143.991ZM141.482 9.10208H144.242L148.639 19.5042H145.57L144.817 17.66H140.833L140.095 19.5042H137.085L141.482 9.10208Z" fill="#FAFAFA"/>
</svg>
