<svg width="15" height="15" viewBox="0 0 15 15" fill="none" xmlns="http://www.w3.org/2000/svg">
<path d="M13.75 7.50055H10L8.75 9.37555H6.25L5 7.50055H1.25" stroke="#7A8D9C" stroke-linecap="round" stroke-linejoin="round"/>
<path d="M3.40625 3.1943L1.25 7.50055V11.2505C1.25 11.5821 1.3817 11.9 1.61612 12.1344C1.85054 12.3689 2.16848 12.5005 2.5 12.5005H12.5C12.8315 12.5005 13.1495 12.3689 13.3839 12.1344C13.6183 11.9 13.75 11.5821 13.75 11.2505V7.50055L11.5937 3.1943C11.4903 2.98604 11.3307 2.81078 11.1331 2.68822C10.9355 2.56567 10.7076 2.50067 10.475 2.50055H4.525C4.29245 2.50067 4.06454 2.56567 3.8669 2.68822C3.66927 2.81078 3.50974 2.98604 3.40625 3.1943V3.1943Z" stroke="#7A8D9C" stroke-linecap="round" stroke-linejoin="round"/>
</svg>
